<?xml version="1.0" encoding="UTF-8" standalone="no"?>
<!-- Created with Inkscape (http://www.inkscape.org/) -->

<svg
   width="30.293472mm"
   height="12.898392mm"
   viewBox="0 0 30.293472 12.898392"
   version="1.1"
   id="svg5"
   inkscape:version="1.2.2 (b0a8486, 2022-12-01)"
   sodipodi:docname="design.svg"
   xmlns:inkscape="http://www.inkscape.org/namespaces/inkscape"
   xmlns:sodipodi="http://sodipodi.sourceforge.net/DTD/sodipodi-0.dtd"
   xmlns:xlink="http://www.w3.org/1999/xlink"
   xmlns="http://www.w3.org/2000/svg"
   xmlns:svg="http://www.w3.org/2000/svg">
  <sodipodi:namedview
     id="namedview7"
     pagecolor="#ffffff"
     bordercolor="#000000"
     borderopacity="0.25"
     inkscape:showpageshadow="2"
     inkscape:pageopacity="0.0"
     inkscape:pagecheckerboard="0"
     inkscape:deskcolor="#d1d1d1"
     inkscape:document-units="mm"
     showgrid="false"
     inkscape:zoom="1.7022328"
     inkscape:cx="437.66047"
     inkscape:cy="610.96227"
     inkscape:window-width="1333"
     inkscape:window-height="898"
     inkscape:window-x="0"
     inkscape:window-y="38"
     inkscape:window-maximized="0"
     inkscape:current-layer="layer1" />
  <defs
     id="defs2">
    <linearGradient
       inkscape:collect="always"
       id="linearGradient41515">
      <stop
         style="stop-color:#ffffff;stop-opacity:0.99713469;"
         offset="0"
         id="stop41511" />
      <stop
         style="stop-color:#ffffff;stop-opacity:0.15759312;"
         offset="1"
         id="stop41513" />
    </linearGradient>
    <rect
       x="98.12706"
       y="497.77182"
       width="127.83449"
       height="14.546526"
       id="rect374" />
    <linearGradient
       inkscape:collect="always"
       xlink:href="#linearGradient41515"
       id="linearGradient57770"
       gradientUnits="userSpaceOnUse"
       gradientTransform="matrix(1.1818169,0,0,1.3730261,-38.646614,-91.38254)"
       x1="115.0205"
       y1="171.59816"
       x2="150.14838"
       y2="171.59816" />
  </defs>
  <g
     inkscape:groupmode="layer"
     id="layer2"
     inkscape:label="Layer 2"
     style="display:inline"
     transform="translate(-89.933794,-215.19027)">
    <g
       id="g104846"
       transform="translate(0.35500181,0.82833752)">
      <g
         id="g104861">
        <path
           style="display:inline;fill:#000000;fill-opacity:1;stroke-width:0.297541;stroke-dasharray:none;paint-order:markers fill stroke"
           d="m 89.578792,215.47148 6.491461,2.35777 7.764287,0.55476 8.528,-1.10953 7.50973,-2.91254 -5.85504,12.89839 -11.71009,-1.24823 -10.182675,1.10954 z"
           id="path102243-2" />
        <path
           style="display:inline;fill:#67afff;fill-opacity:1;stroke-width:0.264999;stroke-dasharray:none;paint-order:markers fill stroke"
           d="m 90.288791,216.1961 6.035032,2.01168 7.218367,0.47333 7.92838,-0.94667 6.9817,-2.48501 -5.44336,11.00505 -10.88672,-1.065 -9.466719,0.94667 z"
           id="path102243" />
        <g
           aria-label="JUST ENOUGH"
           transform="matrix(0.37770493,0,0,0.59022649,66.605226,-63.336928)"
           id="text579-0-2-9-7"
           style="font-size:10.4325px;font-family:SignPainter;-inkscape-font-specification:'SignPainter, Normal';white-space:pre;shape-inside:url(#rect374);display:inline;fill-opacity:0.761682;stroke-width:0.869372"
           inkscape:label="text579">
          <path
             d="m 71.916361,485.00824 c -0.04173,0.15649 -0.05216,0.31298 -0.05216,0.46946 0,0.80331 0.54249,1.36666 1.54401,1.36666 0.740707,0 1.491847,-0.37557 2.159527,-1.49185 0.563355,-0.92849 1.554443,-2.95239 1.909148,-3.78699 0.135622,-0.30255 0.198217,-0.61552 0.198217,-0.81374 0,-0.21908 -0.05216,-0.39643 -0.12519,-0.51119 -0.12519,-0.21908 -0.281677,-0.23995 -0.438165,-0.0104 -0.365137,0.54249 -1.231035,2.28471 -1.773525,3.39056 -0.636382,1.32493 -1.387522,2.73331 -2.149095,2.73331 -0.25038,0 -0.448597,-0.13562 -0.448597,-0.75114 0,-0.29211 0.08346,-0.69897 0.229515,-1.14757 0.07303,-0.23995 -0.05216,-0.34427 -0.281678,-0.29211 -0.302542,0.073 -0.646815,0.37557 -0.772005,0.84503 z"
             id="path97493"
             inkscape:original-d="m 71.916361,485.00824 c -0.04173,0.15649 -0.05216,0.31298 -0.05216,0.46946 0,0.80331 0.54249,1.36666 1.54401,1.36666 0.740707,0 1.491847,-0.37557 2.159527,-1.49185 0.563355,-0.92849 1.554443,-2.95239 1.909148,-3.78699 0.135622,-0.30255 0.198217,-0.61552 0.198217,-0.81374 0,-0.21908 -0.05216,-0.39643 -0.12519,-0.51119 -0.12519,-0.21908 -0.281677,-0.23995 -0.438165,-0.0104 -0.365137,0.54249 -1.231035,2.28471 -1.773525,3.39056 -0.636382,1.32493 -1.387522,2.73331 -2.149095,2.73331 -0.25038,0 -0.448597,-0.13562 -0.448597,-0.75114 0,-0.29211 0.08346,-0.69897 0.229515,-1.14757 0.07303,-0.23995 -0.05216,-0.34427 -0.281678,-0.29211 -0.302542,0.073 -0.646815,0.37557 -0.772005,0.84503 z" />
          <path
             d="m 77.935897,486.87566 c 0.636382,0 1.324927,-0.35471 1.87785,-1.11628 0.688545,-0.94936 1.971742,-3.32797 2.326447,-4.12084 0.16692,-0.3547 0.229515,-0.66768 0.229515,-0.89719 0,-0.15649 -0.04173,-0.31298 -0.104325,-0.42773 -0.12519,-0.18779 -0.29211,-0.22952 -0.427732,-0.0104 -0.563355,0.8972 -1.700498,2.93154 -2.263853,4.02695 -0.615517,1.21017 -1.304062,2.03434 -1.83612,2.03434 -0.229515,0 -0.386002,-0.14606 -0.386002,-0.49033 0,-0.13562 0.0313,-0.30254 0.07303,-0.49033 0.281678,-1.08498 1.283198,-2.63942 1.783958,-3.56791 0.239947,-0.4486 0.323407,-0.78244 0.323407,-1.02239 0,-0.18778 -0.05216,-0.33384 -0.135622,-0.46946 -0.12519,-0.18779 -0.29211,-0.21908 -0.438165,-0.0104 -0.938925,1.43968 -2.117798,3.39056 -2.399475,4.5277 -0.05216,0.22952 -0.07303,0.42773 -0.07303,0.62595 0,0.73028 0.406868,1.11628 0.845033,1.29363 0.177352,0.073 0.37557,0.11476 0.605085,0.11476 z"
             id="path97495"
             inkscape:original-d="m 77.935897,486.87566 c 0.636382,0 1.324927,-0.35471 1.87785,-1.11628 0.688545,-0.94936 1.971742,-3.32797 2.326447,-4.12084 0.16692,-0.3547 0.229515,-0.66768 0.229515,-0.89719 0,-0.15649 -0.04173,-0.31298 -0.104325,-0.42773 -0.12519,-0.18779 -0.29211,-0.22952 -0.427732,-0.0104 -0.563355,0.8972 -1.700498,2.93154 -2.263853,4.02695 -0.615517,1.21017 -1.304062,2.03434 -1.83612,2.03434 -0.229515,0 -0.386002,-0.14606 -0.386002,-0.49033 0,-0.13562 0.0313,-0.30254 0.07303,-0.49033 0.281678,-1.08498 1.283198,-2.63942 1.783958,-3.56791 0.239947,-0.4486 0.323407,-0.78244 0.323407,-1.02239 0,-0.18778 -0.05216,-0.33384 -0.135622,-0.46946 -0.12519,-0.18779 -0.29211,-0.21908 -0.438165,-0.0104 -0.938925,1.43968 -2.117798,3.39056 -2.399475,4.5277 -0.05216,0.22952 -0.07303,0.42773 -0.07303,0.62595 0,0.73028 0.406868,1.11628 0.845033,1.29363 0.177352,0.073 0.37557,0.11476 0.605085,0.11476 z" />
          <path
             d="m 80.658771,485.4777 c 0.824167,0.94936 1.83612,1.37709 2.597692,1.37709 0.62595,0 1.137143,-0.21908 1.408388,-0.53205 0.271245,-0.32341 0.406867,-0.59466 0.406867,-0.8346 0,-0.19822 -0.114757,-0.38601 -0.312975,-0.53206 -0.406867,-0.29211 -1.83612,-0.88676 -1.804822,-1.57531 0.05216,-1.19974 2.33688,-2.73331 2.722882,-2.45164 0.146055,0.10433 -0.135622,0.56336 -0.396435,0.94936 -0.344272,0.45903 -0.479895,0.85547 -0.479895,1.08498 0,0.23995 0.104325,0.4173 0.25038,0.56336 0.198218,0.20865 0.312975,0.12519 0.406868,-0.0417 0.146055,-0.25038 0.448597,-0.79287 0.698977,-1.12671 0.156488,-0.22952 0.4173,-0.64682 0.312975,-1.07455 -0.07303,-0.28168 -0.260812,-0.62595 -0.552922,-0.8972 -0.177353,-0.14605 -0.386003,-0.21908 -0.636383,-0.21908 -0.239947,0 -0.45903,0.0313 -0.803302,0.17735 -0.938925,0.39644 -2.566395,1.63791 -2.566395,3.05673 0,1.06411 1.450117,1.62747 2.201257,2.21169 0.114758,0.0939 0.16692,0.28167 0.01043,0.43816 -0.114758,0.11476 -0.323408,0.16692 -0.552923,0.16692 -0.605085,0 -1.29363,-0.52162 -1.700497,-0.85546 -0.219083,-0.17736 -0.511193,-0.26082 -0.813735,-0.26082 -0.12519,0 -0.239948,0.0104 -0.323408,0.0313 -0.146055,0.0522 -0.219082,0.16692 -0.07303,0.34427 z"
             id="path97497"
             inkscape:original-d="m 80.658771,485.4777 c 0.824167,0.94936 1.83612,1.37709 2.597692,1.37709 0.62595,0 1.137143,-0.21908 1.408388,-0.53205 0.271245,-0.32341 0.406867,-0.59466 0.406867,-0.8346 0,-0.19822 -0.114757,-0.38601 -0.312975,-0.53206 -0.406867,-0.29211 -1.83612,-0.88676 -1.804822,-1.57531 0.05216,-1.19974 2.33688,-2.73331 2.722882,-2.45164 0.146055,0.10433 -0.135622,0.56336 -0.396435,0.94936 -0.344272,0.45903 -0.479895,0.85547 -0.479895,1.08498 0,0.23995 0.104325,0.4173 0.25038,0.56336 0.198218,0.20865 0.312975,0.12519 0.406868,-0.0417 0.146055,-0.25038 0.448597,-0.79287 0.698977,-1.12671 0.156488,-0.22952 0.4173,-0.64682 0.312975,-1.07455 -0.07303,-0.28168 -0.260812,-0.62595 -0.552922,-0.8972 -0.177353,-0.14605 -0.386003,-0.21908 -0.636383,-0.21908 -0.239947,0 -0.45903,0.0313 -0.803302,0.17735 -0.938925,0.39644 -2.566395,1.63791 -2.566395,3.05673 0,1.06411 1.450117,1.62747 2.201257,2.21169 0.114758,0.0939 0.16692,0.28167 0.01043,0.43816 -0.114758,0.11476 -0.323408,0.16692 -0.552923,0.16692 -0.605085,0 -1.29363,-0.52162 -1.700497,-0.85546 -0.219083,-0.17736 -0.511193,-0.26082 -0.813735,-0.26082 -0.12519,0 -0.239948,0.0104 -0.323408,0.0313 -0.146055,0.0522 -0.219082,0.16692 -0.07303,0.34427 z" />
          <path
             d="m 85.989758,486.10365 c 0,0.26082 0.0626,0.42774 0.219083,0.57379 0.146055,0.14606 0.271245,0.13562 0.354705,-0.0522 0.605085,-1.36666 1.356225,-2.75418 1.898715,-3.73484 0.448597,-0.78243 0.75114,-1.38752 0.740707,-1.76309 0.563355,-0.0939 1.16844,-0.18778 1.617038,-0.13562 0.239947,0.0209 0.281677,-0.10433 0.229515,-0.22952 -0.156488,-0.43816 -0.594653,-0.56335 -1.074548,-0.56335 -0.605085,0 -2.274285,0.28168 -3.181912,0.28168 -0.146055,0 -0.229515,0.0626 -0.198218,0.19821 0.114758,0.40687 0.563355,0.64682 1.241468,0.64682 0.146055,0 0.29211,-0.0209 0.448597,-0.0417 -0.91806,1.41882 -1.971742,3.53662 -2.232555,4.40251 -0.04173,0.13563 -0.0626,0.29211 -0.0626,0.4173 z"
             id="path97499"
             inkscape:original-d="m 85.989758,486.10365 c 0,0.26082 0.0626,0.42774 0.219083,0.57379 0.146055,0.14606 0.271245,0.13562 0.354705,-0.0522 0.605085,-1.36666 1.356225,-2.75418 1.898715,-3.73484 0.448597,-0.78243 0.75114,-1.38752 0.740707,-1.76309 0.563355,-0.0939 1.16844,-0.18778 1.617038,-0.13562 0.239947,0.0209 0.281677,-0.10433 0.229515,-0.22952 -0.156488,-0.43816 -0.594653,-0.56335 -1.074548,-0.56335 -0.605085,0 -2.274285,0.28168 -3.181912,0.28168 -0.146055,0 -0.229515,0.0626 -0.198218,0.19821 0.114758,0.40687 0.563355,0.64682 1.241468,0.64682 0.146055,0 0.29211,-0.0209 0.448597,-0.0417 -0.91806,1.41882 -1.971742,3.53662 -2.232555,4.40251 -0.04173,0.13563 -0.0626,0.29211 -0.0626,0.4173 z" />
          <path
             d="m 91.852815,486.23928 c 0.114758,0.18778 0.187785,0.3547 0.260813,0.45903 0.135622,0.19821 0.302542,0.19821 0.552922,0.12519 0.573788,-0.15649 1.690065,-0.42774 2.242988,-0.4173 0.219082,0 0.25038,-0.0835 0.198217,-0.22952 -0.12519,-0.34427 -0.4173,-0.51119 -0.980655,-0.49033 -0.33384,0.0209 -0.991087,0.13563 -1.41882,0.25038 0.20865,-0.46946 0.427733,-0.89719 0.719843,-1.45011 0.563355,-0.14606 1.29363,-0.27125 1.804822,-0.27125 0.239948,0 0.260813,-0.10432 0.20865,-0.23995 -0.114757,-0.33384 -0.386002,-0.52162 -0.95979,-0.50076 -0.146055,0.0104 -0.323407,0.0209 -0.54249,0.0522 0.490328,-0.88677 0.970223,-1.75266 1.314495,-2.27429 0.156488,-0.0209 0.260813,-0.0417 0.4173,-0.073 0.490328,-0.0939 1.053683,-0.19821 1.575308,-0.19821 0.198217,0 0.271245,-0.0939 0.229515,-0.20865 -0.135623,-0.36514 -0.396435,-0.55293 -0.87633,-0.54249 -0.271245,0 -0.563355,0.0522 -0.91806,0.10432 -0.50076,0.0835 -1.053683,0.14606 -1.62747,0.14606 -0.156488,0 -0.271245,0.0626 -0.239948,0.20865 0.05216,0.19821 0.177353,0.36513 0.4173,0.52162 -0.865897,1.34579 -1.867417,3.23408 -2.33688,4.46511 -0.104325,0.29211 -0.12519,0.42773 -0.04173,0.56336 z"
             id="path97501"
             inkscape:original-d="m 91.852815,486.23928 c 0.114758,0.18778 0.187785,0.3547 0.260813,0.45903 0.135622,0.19821 0.302542,0.19821 0.552922,0.12519 0.573788,-0.15649 1.690065,-0.42774 2.242988,-0.4173 0.219082,0 0.25038,-0.0835 0.198217,-0.22952 -0.12519,-0.34427 -0.4173,-0.51119 -0.980655,-0.49033 -0.33384,0.0209 -0.991087,0.13563 -1.41882,0.25038 0.20865,-0.46946 0.427733,-0.89719 0.719843,-1.45011 0.563355,-0.14606 1.29363,-0.27125 1.804822,-0.27125 0.239948,0 0.260813,-0.10432 0.20865,-0.23995 -0.114757,-0.33384 -0.386002,-0.52162 -0.95979,-0.50076 -0.146055,0.0104 -0.323407,0.0209 -0.54249,0.0522 0.490328,-0.88677 0.970223,-1.75266 1.314495,-2.27429 0.156488,-0.0209 0.260813,-0.0417 0.4173,-0.073 0.490328,-0.0939 1.053683,-0.19821 1.575308,-0.19821 0.198217,0 0.271245,-0.0939 0.229515,-0.20865 -0.135623,-0.36514 -0.396435,-0.55293 -0.87633,-0.54249 -0.271245,0 -0.563355,0.0522 -0.91806,0.10432 -0.50076,0.0835 -1.053683,0.14606 -1.62747,0.14606 -0.156488,0 -0.271245,0.0626 -0.239948,0.20865 0.05216,0.19821 0.177353,0.36513 0.4173,0.52162 -0.865897,1.34579 -1.867417,3.23408 -2.33688,4.46511 -0.104325,0.29211 -0.12519,0.42773 -0.04173,0.56336 z" />
          <path
             d="m 97.83061,485.78025 c 0.04173,0.53205 0.20865,0.8033 0.552923,0.98065 0.177352,0.0939 0.29211,0.0313 0.354705,-0.0939 0.636382,-1.40839 1.919582,-3.86003 2.503802,-4.81982 0.32341,-0.52162 0.386,-0.88676 0.386,-1.13714 0,-0.14605 -0.0313,-0.28168 -0.0939,-0.40687 -0.11476,-0.19821 -0.23995,-0.25038 -0.39644,-0.0313 -0.68854,1.07454 -1.700495,2.90023 -2.409905,4.39208 0.07303,-1.19974 0.16692,-2.28472 0.312975,-3.12975 0.0313,-0.18779 0.05216,-0.35471 0.05216,-0.50076 0,-0.37557 -0.146055,-0.59465 -0.45903,-0.82417 -0.156488,-0.12519 -0.281678,-0.12519 -0.4173,0.10433 -0.79287,1.31449 -2.117798,3.79743 -2.660288,5.19538 -0.08346,0.21908 -0.135622,0.46946 -0.135622,0.62595 0,0.23995 0.09389,0.4486 0.198217,0.58422 0.146055,0.15649 0.302543,0.14606 0.37557,-0.0626 0.45903,-1.2832 1.199738,-2.72289 1.940445,-3.99565 -0.09389,0.88676 -0.135622,1.75266 -0.135622,2.35774 0,0.25038 0.01043,0.45903 0.0313,0.76158 z"
             id="path97503"
             inkscape:original-d="m 97.83061,485.78025 c 0.04173,0.53205 0.20865,0.8033 0.552923,0.98065 0.177352,0.0939 0.29211,0.0313 0.354705,-0.0939 0.636382,-1.40839 1.919582,-3.86003 2.503802,-4.81982 0.32341,-0.52162 0.386,-0.88676 0.386,-1.13714 0,-0.14605 -0.0313,-0.28168 -0.0939,-0.40687 -0.11476,-0.19821 -0.23995,-0.25038 -0.39644,-0.0313 -0.68854,1.07454 -1.700495,2.90023 -2.409905,4.39208 0.07303,-1.19974 0.16692,-2.28472 0.312975,-3.12975 0.0313,-0.18779 0.05216,-0.35471 0.05216,-0.50076 0,-0.37557 -0.146055,-0.59465 -0.45903,-0.82417 -0.156488,-0.12519 -0.281678,-0.12519 -0.4173,0.10433 -0.79287,1.31449 -2.117798,3.79743 -2.660288,5.19538 -0.08346,0.21908 -0.135622,0.46946 -0.135622,0.62595 0,0.23995 0.09389,0.4486 0.198217,0.58422 0.146055,0.15649 0.302543,0.14606 0.37557,-0.0626 0.45903,-1.2832 1.199738,-2.72289 1.940445,-3.99565 -0.09389,0.88676 -0.135622,1.75266 -0.135622,2.35774 0,0.25038 0.01043,0.45903 0.0313,0.76158 z" />
          <path
             d="m 104.51784,480.0841 c -0.21908,0 -0.4173,0.0313 -0.62595,0.10433 -1.1893,0.4173 -3.15061,2.34731 -3.15061,4.54857 0,0.86589 0.34427,1.64833 1.24146,1.98217 0.22952,0.0835 0.4486,0.12519 0.69898,0.12519 1.19974,0 2.25342,-1.07455 2.96283,-2.36818 0.39644,-0.73027 0.66768,-1.62747 0.66768,-2.39947 0,-0.74071 -0.27124,-1.37709 -0.94936,-1.67963 -0.17735,-0.18779 -0.46946,-0.31298 -0.84503,-0.31298 z m -2.18039,6.18647 c -0.39644,0 -0.65725,-0.40686 -0.65725,-1.13714 0,-0.67811 0.22952,-1.57531 0.76157,-2.39947 0.94936,-1.45012 2.1804,-2.13867 2.63943,-1.97175 0.21908,0.0835 0.3234,0.4173 0.3234,0.91806 0,0.63639 -0.20865,1.51272 -0.70941,2.44121 -0.7407,1.35622 -1.71093,2.14909 -2.35774,2.14909 z"
             id="path97505"
             inkscape:original-d="m 104.51784,480.0841 c -0.21908,0 -0.4173,0.0313 -0.62595,0.10433 -1.1893,0.4173 -3.15061,2.34731 -3.15061,4.54857 0,0.86589 0.34427,1.64833 1.24146,1.98217 0.22952,0.0835 0.4486,0.12519 0.69898,0.12519 1.19974,0 2.25342,-1.07455 2.96283,-2.36818 0.39644,-0.73027 0.66768,-1.62747 0.66768,-2.39947 0,-0.74071 -0.27124,-1.37709 -0.94936,-1.67963 -0.17735,-0.18779 -0.46946,-0.31298 -0.84503,-0.31298 z m -2.18039,6.18647 c -0.39644,0 -0.65725,-0.40686 -0.65725,-1.13714 0,-0.67811 0.22952,-1.57531 0.76157,-2.39947 0.94936,-1.45012 2.1804,-2.13867 2.63943,-1.97175 0.21908,0.0835 0.3234,0.4173 0.3234,0.91806 0,0.63639 -0.20865,1.51272 -0.70941,2.44121 -0.7407,1.35622 -1.71093,2.14909 -2.35774,2.14909 z" />
          <path
             d="m 107.38676,486.87566 c 0.63639,0 1.32493,-0.35471 1.87785,-1.11628 0.68855,-0.94936 1.97175,-3.32797 2.32645,-4.12084 0.16692,-0.3547 0.22952,-0.66768 0.22952,-0.89719 0,-0.15649 -0.0417,-0.31298 -0.10433,-0.42773 -0.12519,-0.18779 -0.29211,-0.22952 -0.42773,-0.0104 -0.56336,0.8972 -1.7005,2.93154 -2.26385,4.02695 -0.61552,1.21017 -1.30407,2.03434 -1.83612,2.03434 -0.22952,0 -0.38601,-0.14606 -0.38601,-0.49033 0,-0.13562 0.0313,-0.30254 0.073,-0.49033 0.28168,-1.08498 1.2832,-2.63942 1.78396,-3.56791 0.23995,-0.4486 0.32341,-0.78244 0.32341,-1.02239 0,-0.18778 -0.0522,-0.33384 -0.13563,-0.46946 -0.12519,-0.18779 -0.29211,-0.21908 -0.43816,-0.0104 -0.93893,1.43968 -2.1178,3.39056 -2.39948,4.5277 -0.0522,0.22952 -0.073,0.42773 -0.073,0.62595 0,0.73028 0.40686,1.11628 0.84503,1.29363 0.17735,0.073 0.37557,0.11476 0.60508,0.11476 z"
             id="path97507"
             inkscape:original-d="m 107.38676,486.87566 c 0.63639,0 1.32493,-0.35471 1.87785,-1.11628 0.68855,-0.94936 1.97175,-3.32797 2.32645,-4.12084 0.16692,-0.3547 0.22952,-0.66768 0.22952,-0.89719 0,-0.15649 -0.0417,-0.31298 -0.10433,-0.42773 -0.12519,-0.18779 -0.29211,-0.22952 -0.42773,-0.0104 -0.56336,0.8972 -1.7005,2.93154 -2.26385,4.02695 -0.61552,1.21017 -1.30407,2.03434 -1.83612,2.03434 -0.22952,0 -0.38601,-0.14606 -0.38601,-0.49033 0,-0.13562 0.0313,-0.30254 0.073,-0.49033 0.28168,-1.08498 1.2832,-2.63942 1.78396,-3.56791 0.23995,-0.4486 0.32341,-0.78244 0.32341,-1.02239 0,-0.18778 -0.0522,-0.33384 -0.13563,-0.46946 -0.12519,-0.18779 -0.29211,-0.21908 -0.43816,-0.0104 -0.93893,1.43968 -2.1178,3.39056 -2.39948,4.5277 -0.0522,0.22952 -0.073,0.42773 -0.073,0.62595 0,0.73028 0.40686,1.11628 0.84503,1.29363 0.17735,0.073 0.37557,0.11476 0.60508,0.11476 z" />
          <path
             d="m 115.91011,484.40316 c -0.14605,-0.33384 -0.45903,-0.57379 -1.03282,-0.56336 -0.31297,0 -0.63638,0.0626 -0.99108,0.11476 -0.38601,0.073 -0.80331,0.14605 -1.22061,0.15649 -0.20865,0 -0.26081,0.10432 -0.19821,0.26081 0.15648,0.32341 0.55292,0.56335 1.09541,0.52162 0.20865,-0.0209 0.45903,-0.0522 0.73027,-0.10432 -0.49032,0.91806 -1.23103,1.49185 -1.78395,1.49185 -0.33384,0 -0.59466,-0.27125 -0.59466,-1.07455 0,-0.66768 0.19822,-1.55444 0.75114,-2.39948 0.93893,-1.42925 2.5038,-2.32644 2.80635,-2.01347 0.11475,0.11476 0.0104,0.40687 -0.28168,1.15801 -0.0835,0.21908 -0.0939,0.33384 -0.0939,0.4486 0,0.3234 0.17735,0.53205 0.37557,0.68854 0.19821,0.15649 0.3234,0.0522 0.37557,-0.0835 0.11475,-0.30254 0.28167,-0.70941 0.39643,-0.98065 0.0939,-0.21909 0.13562,-0.40687 0.13562,-0.56336 0,-0.28168 -0.13562,-0.772 -0.63638,-1.13714 -0.17735,-0.12519 -0.43816,-0.19822 -0.70941,-0.19822 -0.22951,0 -0.45903,0.0209 -0.76157,0.12519 -1.17887,0.40687 -3.29667,2.37861 -3.29667,4.60073 0,0.8659 0.33384,1.3458 0.73027,1.62747 0.32341,0.25038 0.67812,0.33384 1.04325,0.33384 0.28168,0 0.54249,-0.0522 0.77201,-0.11475 0.53206,-0.14606 1.79439,-1.07455 1.58574,-2.04477 0.22951,-0.0209 0.42773,-0.0209 0.58422,-0.0104 0.29211,0.0209 0.28168,-0.0835 0.21908,-0.23994 z"
             id="path97509"
             inkscape:original-d="m 115.91011,484.40316 c -0.14605,-0.33384 -0.45903,-0.57379 -1.03282,-0.56336 -0.31297,0 -0.63638,0.0626 -0.99108,0.11476 -0.38601,0.073 -0.80331,0.14605 -1.22061,0.15649 -0.20865,0 -0.26081,0.10432 -0.19821,0.26081 0.15648,0.32341 0.55292,0.56335 1.09541,0.52162 0.20865,-0.0209 0.45903,-0.0522 0.73027,-0.10432 -0.49032,0.91806 -1.23103,1.49185 -1.78395,1.49185 -0.33384,0 -0.59466,-0.27125 -0.59466,-1.07455 0,-0.66768 0.19822,-1.55444 0.75114,-2.39948 0.93893,-1.42925 2.5038,-2.32644 2.80635,-2.01347 0.11475,0.11476 0.0104,0.40687 -0.28168,1.15801 -0.0835,0.21908 -0.0939,0.33384 -0.0939,0.4486 0,0.3234 0.17735,0.53205 0.37557,0.68854 0.19821,0.15649 0.3234,0.0522 0.37557,-0.0835 0.11475,-0.30254 0.28167,-0.70941 0.39643,-0.98065 0.0939,-0.21909 0.13562,-0.40687 0.13562,-0.56336 0,-0.28168 -0.13562,-0.772 -0.63638,-1.13714 -0.17735,-0.12519 -0.43816,-0.19822 -0.70941,-0.19822 -0.22951,0 -0.45903,0.0209 -0.76157,0.12519 -1.17887,0.40687 -3.29667,2.37861 -3.29667,4.60073 0,0.8659 0.33384,1.3458 0.73027,1.62747 0.32341,0.25038 0.67812,0.33384 1.04325,0.33384 0.28168,0 0.54249,-0.0522 0.77201,-0.11475 0.53206,-0.14606 1.79439,-1.07455 1.58574,-2.04477 0.22951,-0.0209 0.42773,-0.0209 0.58422,-0.0104 0.29211,0.0209 0.28168,-0.0835 0.21908,-0.23994 z" />
          <path
             d="m 121.54363,481.83676 c 0.30254,-0.52162 0.40686,-0.91806 0.40686,-1.21017 0,-0.15649 -0.0417,-0.28168 -0.0939,-0.39643 -0.10432,-0.22952 -0.26081,-0.26082 -0.4486,-0.0209 -0.4173,0.55292 -1.31449,2.1491 -1.98217,3.47402 -0.57379,0.0522 -1.10585,0.18779 -1.76309,0.28168 l 1.11627,-2.03434 c 0.25038,-0.45903 0.34428,-0.86589 0.34428,-1.158 0,-0.17736 -0.0313,-0.31298 -0.0939,-0.42774 -0.11475,-0.19821 -0.27124,-0.22951 -0.43816,-0.0104 -0.43817,0.62595 -1.38752,2.35775 -2.03434,3.70354 -0.11476,0 -0.17735,-0.0209 -0.33384,-0.0313 -0.28168,-0.0209 -0.34427,0.0522 -0.23995,0.25038 0.0417,0.073 0.12519,0.19822 0.33384,0.31298 -0.43816,1.03281 -0.54249,1.34579 -0.54249,1.64833 0,0.23995 0.0835,0.4173 0.17736,0.54249 0.12519,0.17735 0.31297,0.12519 0.386,-0.0522 0.30254,-0.66768 0.60508,-1.33536 0.90763,-1.96131 0.46946,0 1.13714,-0.12519 1.78395,-0.20865 -0.16692,0.34427 -0.30254,0.68854 -0.37557,0.88676 -0.0939,0.28168 -0.13562,0.49033 -0.13562,0.64682 0,0.22951 0.0835,0.386 0.17735,0.53205 0.11476,0.18779 0.29211,0.13563 0.36514,-0.0313 0.34427,-0.76158 0.68855,-1.47099 1.02239,-2.12823 0.17735,0 0.3234,0.0104 0.47989,0.0313 0.19822,0.0313 0.27125,-0.0522 0.23995,-0.18778 -0.0417,-0.16692 -0.15649,-0.34427 -0.37557,-0.45903 0.22951,-0.4173 0.45903,-0.82417 1.11628,-1.99261 z"
             id="path97511"
             inkscape:original-d="m 121.54363,481.83676 c 0.30254,-0.52162 0.40686,-0.91806 0.40686,-1.21017 0,-0.15649 -0.0417,-0.28168 -0.0939,-0.39643 -0.10432,-0.22952 -0.26081,-0.26082 -0.4486,-0.0209 -0.4173,0.55292 -1.31449,2.1491 -1.98217,3.47402 -0.57379,0.0522 -1.10585,0.18779 -1.76309,0.28168 l 1.11627,-2.03434 c 0.25038,-0.45903 0.34428,-0.86589 0.34428,-1.158 0,-0.17736 -0.0313,-0.31298 -0.0939,-0.42774 -0.11475,-0.19821 -0.27124,-0.22951 -0.43816,-0.0104 -0.43817,0.62595 -1.38752,2.35775 -2.03434,3.70354 -0.11476,0 -0.17735,-0.0209 -0.33384,-0.0313 -0.28168,-0.0209 -0.34427,0.0522 -0.23995,0.25038 0.0417,0.073 0.12519,0.19822 0.33384,0.31298 -0.43816,1.03281 -0.54249,1.34579 -0.54249,1.64833 0,0.23995 0.0835,0.4173 0.17736,0.54249 0.12519,0.17735 0.31297,0.12519 0.386,-0.0522 0.30254,-0.66768 0.60508,-1.33536 0.90763,-1.96131 0.46946,0 1.13714,-0.12519 1.78395,-0.20865 -0.16692,0.34427 -0.30254,0.68854 -0.37557,0.88676 -0.0939,0.28168 -0.13562,0.49033 -0.13562,0.64682 0,0.22951 0.0835,0.386 0.17735,0.53205 0.11476,0.18779 0.29211,0.13563 0.36514,-0.0313 0.34427,-0.76158 0.68855,-1.47099 1.02239,-2.12823 0.17735,0 0.3234,0.0104 0.47989,0.0313 0.19822,0.0313 0.27125,-0.0522 0.23995,-0.18778 -0.0417,-0.16692 -0.15649,-0.34427 -0.37557,-0.45903 0.22951,-0.4173 0.45903,-0.82417 1.11628,-1.99261 z" />
        </g>
      </g>
    </g>
  </g>
</svg>
